<svg version="1.1" id="Layer_1" xmlns="http://www.w3.org/2000/svg" xmlns:xlink="http://www.w3.org/1999/xlink" x="0px" y="0px"
	 width="100%" viewBox="0 0 1024 1024" enable-background="new 0 0 1024 1024" xml:space="preserve">
<path fill="#5588FF" opacity="1.000000" stroke="none" 
	d="
M681.000000,1025.000000 
	C454.000000,1025.000000 227.500000,1025.000000 1.000000,1025.000000 
	C1.000000,683.666687 1.000000,342.333344 1.000000,1.000000 
	C342.333344,1.000000 683.666687,1.000000 1025.000000,1.000000 
	C1025.000000,342.333344 1025.000000,683.666687 1025.000000,1025.000000 
	C910.500000,1025.000000 796.000000,1025.000000 681.000000,1025.000000 
M327.017181,611.491638 
	C362.879272,637.834717 401.983154,643.304321 443.350189,627.687866 
	C485.951141,611.605591 513.328247,571.705566 510.008850,528.699585 
	C509.722046,524.983887 511.879242,524.216248 514.289307,523.064514 
	C562.958069,499.807007 611.622070,476.539398 660.283875,453.267242 
	C661.911255,452.488922 663.505554,451.641388 665.635376,450.562653 
	C654.223145,432.548737 643.030273,414.881042 631.639771,396.901337 
	C619.962097,402.473297 608.574280,407.897247 597.194763,413.338409 
	C560.396851,430.933441 523.601746,448.534454 486.806244,466.134491 
	C484.608032,467.185883 482.854797,468.476685 480.273315,465.968903 
	C461.705505,447.930878 439.309265,437.875610 413.704376,434.662598 
	C363.889679,428.411560 314.316284,454.553436 295.750580,498.034332 
	C295.432190,498.779999 294.937683,499.450439 294.461792,500.264801 
	C293.538666,500.065094 292.695862,500.012543 291.959442,499.705048 
	C217.881683,468.774628 210.111954,386.684998 256.199646,339.780548 
	C288.981995,306.417175 329.594543,300.374268 373.570770,311.575439 
	C382.011902,313.725464 389.978546,317.738312 398.500397,321.021362 
	C399.083710,319.677460 399.748535,318.196350 400.373230,316.698517 
	C406.587585,301.798218 415.048981,288.312225 425.926971,276.379364 
	C471.474548,226.414780 546.820129,210.144196 610.932495,236.927994 
	C653.441956,254.686905 683.372131,284.725616 697.565063,329.210693 
	C699.768372,336.116699 700.965210,343.343842 702.407959,349.487671 
	C713.454224,350.688263 724.161621,351.037415 734.520569,353.119934 
	C777.810120,361.822601 804.798218,402.746307 796.151184,445.825684 
	C789.460876,479.157227 762.491882,504.090546 726.400269,507.693665 
	C706.270325,509.703247 685.819763,508.493774 665.514038,508.755890 
	C661.865295,508.802979 658.160156,508.573853 654.579895,509.119934 
	C639.629150,511.400299 627.753052,523.779236 626.800049,537.754395 
	C625.780273,552.708252 635.082947,565.631836 650.453003,570.048767 
	C654.557861,571.228394 658.952515,571.861816 663.224609,571.915527 
	C679.887512,572.124939 696.554932,572.048706 713.220276,571.991272 
	C751.264160,571.860291 785.187561,559.841431 814.786438,536.033936 
	C861.330688,498.596588 879.208496,438.086426 858.830078,384.322144 
	C841.517334,338.646118 807.315308,310.619019 761.821350,295.177277 
	C759.773804,294.482269 757.444153,292.635803 756.581726,290.723267 
	C738.102295,249.742844 709.132751,218.114517 670.685913,195.299164 
	C620.151794,165.310837 565.490295,155.639740 507.647614,164.846909 
	C452.721008,173.589920 406.277496,198.463486 369.446777,240.436127 
	C366.126221,244.220261 363.103638,245.171722 358.392792,244.786850 
	C299.778381,239.997925 248.286774,256.302338 205.926620,297.860809 
	C156.303009,346.545319 144.643951,418.615326 177.020462,479.389435 
	C201.258423,524.886536 240.202118,552.228271 289.296234,565.914062 
	C292.083679,566.691162 294.384583,567.279419 295.687286,570.509399 
	C302.248993,586.779419 312.779633,600.131775 327.017181,611.491638 
M678.071106,700.117493 
	C677.378906,702.741089 676.383362,705.325745 676.040161,707.994202 
	C671.134644,746.137756 666.313721,784.292297 661.481079,822.445190 
	C660.339783,831.455383 659.230225,840.469482 657.942932,850.789856 
	C679.921570,849.954041 701.233765,849.928162 722.392090,848.110840 
	C742.170349,846.412048 756.573059,835.059998 766.657959,818.257812 
	C779.675964,796.569031 782.961792,773.165771 776.323486,748.986328 
	C769.035583,722.440308 752.332153,704.881287 723.849304,701.857361 
	C708.995117,700.280396 693.942261,700.574158 678.071106,700.117493 
M597.500061,823.863159 
	C590.054810,823.863159 582.609558,823.863159 575.131897,823.863159 
	C575.008484,822.518494 574.827820,821.851013 574.906738,821.215820 
	C576.240295,810.476196 577.857788,799.763672 578.839661,788.992859 
	C579.225220,784.762695 580.807312,783.865173 584.706909,783.920532 
	C599.701477,784.133362 614.701660,784.130005 629.697632,783.983704 
	C637.026978,783.912292 642.178894,778.037109 642.058350,770.474792 
	C641.940186,763.066650 636.889526,757.921997 629.517700,757.835327 
	C623.352905,757.762817 617.186523,757.818542 611.020874,757.818237 
	C601.888489,757.817810 592.756104,757.818115 583.043396,757.818115 
	C584.461853,747.101318 585.799622,736.993958 587.166748,726.664795 
	C589.362671,726.664795 590.851807,726.669678 592.340942,726.664062 
	C607.171082,726.608093 622.001221,726.519653 636.831360,726.510986 
	C641.551392,726.508240 645.814209,725.545715 648.732422,721.475281 
	C651.915161,717.035767 652.377563,712.210571 650.039001,707.304199 
	C647.663452,702.320190 643.562744,699.947266 638.001099,699.954956 
	C614.171631,699.988037 590.342163,699.969543 566.512695,699.991150 
	C565.719971,699.991821 564.927551,700.222717 563.759888,700.404785 
	C557.458557,750.126282 551.168823,799.756836 544.901001,849.213867 
	C545.813110,849.606689 546.110840,849.846863 546.408875,849.847351 
	C572.069336,849.889526 597.730591,850.038208 623.389648,849.857422 
	C630.536804,849.807129 635.396118,843.781250 635.199463,836.393372 
	C635.007446,829.181030 630.145874,824.027710 622.994934,823.879517 
	C614.833130,823.710327 606.665222,823.842163 597.500061,823.863159 
M146.500061,850.001892 
	C164.332474,850.001709 182.164948,850.024475 199.997299,849.991699 
	C208.823669,849.975525 214.228333,844.894775 214.177048,836.793030 
	C214.125488,828.651672 208.800873,823.843445 199.815002,823.852905 
	C186.315872,823.867065 172.816742,823.905701 159.317612,823.908813 
	C157.561844,823.909241 155.806046,823.760498 153.474289,823.654724 
	C155.020233,811.667603 156.677094,800.317017 157.846252,788.916382 
	C158.237839,785.098083 159.427795,783.889099 163.299133,783.949036 
	C178.128235,784.178406 192.963089,784.130798 207.794968,784.044678 
	C215.823746,783.998047 221.148911,778.319885 220.996140,770.319275 
	C220.851044,762.720459 215.773407,757.798157 207.872772,757.768311 
	C194.540314,757.717896 181.207520,757.752991 167.874878,757.752197 
	C166.110031,757.752075 164.345169,757.752136 162.079453,757.752136 
	C163.492477,746.987732 164.803253,737.002319 166.168060,726.605286 
	C168.491760,726.605286 170.293945,726.615173 172.095978,726.603760 
	C187.093536,726.508484 202.091568,726.456604 217.088348,726.290100 
	C223.988327,726.213501 228.472839,722.789368 230.014999,716.740173 
	C232.328339,707.665833 226.462433,699.949951 216.930084,699.911316 
	C193.431686,699.816040 169.932632,699.872559 146.433868,699.898499 
	C145.334076,699.899658 144.234604,700.195862 142.913910,700.386658 
	C136.558777,750.232117 130.231918,799.855835 123.838470,850.001892 
	C131.561081,850.001892 138.530609,850.001892 146.500061,850.001892 
M808.933716,826.533630 
	C809.896057,824.596436 810.572510,822.424194 811.910828,820.796143 
	C812.988464,819.485291 814.856445,818.029968 816.390747,818.010986 
	C832.543274,817.811096 848.699463,817.930115 864.853943,817.844116 
	C867.491760,817.830139 868.629822,818.690674 869.190308,821.363770 
	C870.930664,829.664429 872.907715,837.918945 875.001526,846.138245 
	C875.339905,847.466431 876.706604,849.513367 877.660400,849.548828 
	C885.229858,849.830383 892.814514,849.705566 900.986694,849.705566 
	C894.765015,822.908875 888.731812,796.924194 882.491028,770.045288 
	C875.579346,775.161316 867.566467,776.542297 864.846436,786.217346 
	C861.520447,798.047791 848.470642,803.393860 837.443420,799.346680 
	C825.767212,795.061157 819.489014,781.494141 823.348206,768.887085 
	C827.011475,756.920044 839.125916,748.981628 850.001465,753.452637 
	C857.364990,756.479858 862.106750,754.363403 867.526611,750.723206 
	C869.320312,749.518494 871.136353,748.271240 873.105103,747.420471 
	C876.191711,746.086609 876.603821,743.981934 875.867310,740.999268 
	C873.833618,732.764160 872.037537,724.470337 870.009277,716.233826 
	C868.708252,710.950256 868.707886,703.861389 865.277039,701.019470 
	C862.068542,698.361877 855.084778,700.484131 849.801819,700.037781 
	C845.699951,699.691284 843.682068,701.282471 841.871765,704.914551 
	C818.713745,751.376953 795.382263,797.752747 772.108154,844.157227 
	C771.323425,845.721802 770.678955,847.356689 769.632202,849.719299 
	C778.860291,849.719299 787.297424,849.843018 795.721985,849.572815 
	C796.856628,849.536377 798.277832,847.700317 798.968689,846.383850 
	C802.292480,840.050293 805.411255,833.609131 808.933716,826.533630 
M243.464767,752.971924 
	C222.319565,775.796997 219.122910,810.106567 235.864655,834.543640 
	C250.049286,855.248291 276.102081,859.082458 295.598602,843.321716 
	C297.528534,841.761536 299.391846,840.118958 301.630768,838.222656 
	C308.136932,844.511047 314.693451,850.727783 324.723816,849.775635 
	C324.902954,848.660522 325.035522,848.011353 325.108551,847.355469 
	C327.890198,822.372009 330.563660,797.375916 333.488739,772.409302 
	C334.848022,760.807312 331.482086,756.420593 319.975739,756.482239 
	C316.662567,756.499939 314.877808,755.280151 313.223022,752.614563 
	C307.513885,743.417847 299.156464,738.403809 288.403503,736.867249 
	C270.803101,734.352234 256.415894,740.541138 243.464767,752.971924 
M481.712799,800.970032 
	C481.050964,801.828979 480.389130,802.687866 479.422516,803.942322 
	C472.699707,781.958130 466.148499,760.535217 459.656006,739.304199 
	C451.143738,739.304199 443.234619,739.304199 434.964569,739.304199 
	C435.556885,741.418091 436.014954,743.170105 436.538086,744.902466 
	C445.150635,773.422363 453.848114,801.917175 462.257477,830.496826 
	C463.001556,833.025513 462.681213,836.510132 461.491943,838.861084 
	C453.600861,854.460205 445.331329,869.867859 437.205963,885.348755 
	C436.411743,886.861816 435.759460,888.449524 434.726471,890.683411 
	C442.484924,890.683411 449.302002,890.491882 456.100861,890.760864 
	C459.723297,890.904175 461.736633,889.750183 463.486786,886.456604 
	C488.803589,838.812561 514.270203,791.248047 539.692200,743.659912 
	C540.412903,742.310852 541.038757,740.910950 541.971436,738.995361 
	C533.880798,738.995361 526.716309,739.177551 519.567932,738.916870 
	C516.102539,738.790405 514.270508,739.939148 512.634766,743.052612 
	C502.566925,762.215576 492.255005,781.250305 481.712799,800.970032 
M345.766449,833.506836 
	C354.220154,843.008301 363.533661,850.843140 376.901093,852.628052 
	C402.258362,856.013855 422.550690,835.806519 417.971619,811.361267 
	C415.895905,800.280212 408.378815,793.009155 400.284088,786.164734 
	C395.328552,781.974609 389.965973,778.195374 385.468872,773.568176 
	C383.649017,771.695740 382.475464,767.763977 383.092285,765.288879 
	C384.025757,761.543213 388.130798,760.077515 391.659760,761.204285 
	C395.651550,762.478638 399.512177,764.643188 402.915588,767.125671 
	C405.526367,769.029968 407.339233,772.028198 409.917908,775.016113 
	C413.637482,768.564880 417.392029,762.337585 420.761810,755.908508 
	C421.279572,754.920654 420.390656,752.737427 419.531189,751.560852 
	C414.355865,744.475525 407.512665,739.619507 399.013062,737.329651 
	C384.333954,733.375061 368.396973,739.468689 361.072937,751.704529 
	C353.857635,763.758728 356.024139,779.460571 366.751282,790.783264 
	C370.171295,794.393188 374.113434,797.516968 377.889557,800.778748 
	C382.169556,804.475769 387.003082,807.668274 390.667236,811.886780 
	C392.626648,814.142639 393.750031,818.286804 393.247162,821.237366 
	C392.553314,825.308289 388.612000,826.951660 384.446960,827.240662 
	C377.073395,827.752441 371.207611,824.611816 366.126251,819.669861 
	C363.920837,817.524902 361.912079,815.177673 359.600006,812.692383 
	C354.835938,818.662292 350.334564,824.217102 345.968811,829.876587 
	C345.387695,830.629883 345.494751,831.914124 345.766449,833.506836 
M839.053467,782.530884 
	C843.733704,785.925293 847.813599,785.931274 851.084473,782.548584 
	C854.438477,779.079895 854.695312,773.456238 851.542053,769.776611 
	C848.679138,766.435852 845.082642,765.735657 841.194763,767.674622 
	C836.870361,769.831299 835.393921,775.153564 837.499268,780.257324 
	C837.749146,780.863098 838.198547,781.386597 839.053467,782.530884 
z"/>
<path fill="#FDFEFF" opacity="1.000000" stroke="none" 
	d="
M326.738953,611.268799 
	C312.779633,600.131775 302.248993,586.779419 295.687286,570.509399 
	C294.384583,567.279419 292.083679,566.691162 289.296234,565.914062 
	C240.202118,552.228271 201.258423,524.886536 177.020462,479.389435 
	C144.643951,418.615326 156.303009,346.545319 205.926620,297.860809 
	C248.286774,256.302338 299.778381,239.997925 358.392792,244.786850 
	C363.103638,245.171722 366.126221,244.220261 369.446777,240.436127 
	C406.277496,198.463486 452.721008,173.589920 507.647614,164.846909 
	C565.490295,155.639740 620.151794,165.310837 670.685913,195.299164 
	C709.132751,218.114517 738.102295,249.742844 756.581726,290.723267 
	C757.444153,292.635803 759.773804,294.482269 761.821350,295.177277 
	C807.315308,310.619019 841.517334,338.646118 858.830078,384.322144 
	C879.208496,438.086426 861.330688,498.596588 814.786438,536.033936 
	C785.187561,559.841431 751.264160,571.860291 713.220276,571.991272 
	C696.554932,572.048706 679.887512,572.124939 663.224609,571.915527 
	C658.952515,571.861816 654.557861,571.228394 650.453003,570.048767 
	C635.082947,565.631836 625.780273,552.708252 626.800049,537.754395 
	C627.753052,523.779236 639.629150,511.400299 654.579895,509.119934 
	C658.160156,508.573853 661.865295,508.802979 665.514038,508.755890 
	C685.819763,508.493774 706.270325,509.703247 726.400269,507.693665 
	C762.491882,504.090546 789.460876,479.157227 796.151184,445.825684 
	C804.798218,402.746307 777.810120,361.822601 734.520569,353.119934 
	C724.161621,351.037415 713.454224,350.688263 702.407959,349.487671 
	C700.965210,343.343842 699.768372,336.116699 697.565063,329.210693 
	C683.372131,284.725616 653.441956,254.686905 610.932495,236.927994 
	C546.820129,210.144196 471.474548,226.414780 425.926971,276.379364 
	C415.048981,288.312225 406.587585,301.798218 400.373230,316.698517 
	C399.748535,318.196350 399.083710,319.677460 398.500397,321.021362 
	C389.978546,317.738312 382.011902,313.725464 373.570770,311.575439 
	C329.594543,300.374268 288.981995,306.417175 256.199646,339.780548 
	C210.111954,386.684998 217.881683,468.774628 291.959442,499.705048 
	C292.695862,500.012543 293.538666,500.065094 294.461792,500.264801 
	C294.937683,499.450439 295.432190,498.779999 295.750580,498.034332 
	C314.316284,454.553436 363.889679,428.411560 413.704376,434.662598 
	C439.309265,437.875610 461.705505,447.930878 480.273315,465.968903 
	C482.854797,468.476685 484.608032,467.185883 486.806244,466.134491 
	C523.601746,448.534454 560.396851,430.933441 597.194763,413.338409 
	C608.574280,407.897247 619.962097,402.473297 631.639771,396.901337 
	C643.030273,414.881042 654.223145,432.548737 665.635376,450.562653 
	C663.505554,451.641388 661.911255,452.488922 660.283875,453.267242 
	C611.622070,476.539398 562.958069,499.807007 514.289307,523.064514 
	C511.879242,524.216248 509.722046,524.983887 510.008850,528.699585 
	C513.328247,571.705566 485.951141,611.605591 443.350189,627.687866 
	C401.983154,643.304321 362.879272,637.834717 326.738953,611.268799 
M437.349792,517.250183 
	C423.275146,494.488892 392.269104,488.979767 371.248230,505.505341 
	C351.788483,520.803589 351.305267,547.975830 370.288544,563.865112 
	C379.828186,571.849915 391.000031,575.032471 403.275360,573.961609 
	C432.992767,571.369202 450.922241,542.847656 437.349792,517.250183 
z"/>
<path fill="#FDFDFF" opacity="1.000000" stroke="none" 
	d="
M678.525146,700.070190 
	C693.942261,700.574158 708.995117,700.280396 723.849304,701.857361 
	C752.332153,704.881287 769.035583,722.440308 776.323486,748.986328 
	C782.961792,773.165771 779.675964,796.569031 766.657959,818.257812 
	C756.573059,835.059998 742.170349,846.412048 722.392090,848.110840 
	C701.233765,849.928162 679.921570,849.954041 657.942932,850.789856 
	C659.230225,840.469482 660.339783,831.455383 661.481079,822.445190 
	C666.313721,784.292297 671.134644,746.137756 676.040161,707.994202 
	C676.383362,705.325745 677.378906,702.741089 678.525146,700.070190 
M688.293091,823.169128 
	C696.049561,823.120483 703.818848,823.339050 711.559631,822.965637 
	C726.093323,822.264587 737.152771,815.402466 744.905823,803.154602 
	C750.032654,795.055420 752.122009,786.002930 752.666443,776.604675 
	C754.588074,743.433655 735.613892,723.032898 699.961060,726.909546 
	C698.488037,738.489624 696.976196,750.182190 695.518066,761.881470 
	C693.007996,782.021362 690.531372,802.165527 688.293091,823.169128 
z"/>
<path fill="#FDFDFF" opacity="1.000000" stroke="none" 
	d="
M598.000000,823.853149 
	C606.665222,823.842163 614.833130,823.710327 622.994934,823.879517 
	C630.145874,824.027710 635.007446,829.181030 635.199463,836.393372 
	C635.396118,843.781250 630.536804,849.807129 623.389648,849.857422 
	C597.730591,850.038208 572.069336,849.889526 546.408875,849.847351 
	C546.110840,849.846863 545.813110,849.606689 544.901001,849.213867 
	C551.168823,799.756836 557.458557,750.126282 563.759888,700.404785 
	C564.927551,700.222717 565.719971,699.991821 566.512695,699.991150 
	C590.342163,699.969543 614.171631,699.988037 638.001099,699.954956 
	C643.562744,699.947266 647.663452,702.320190 650.039001,707.304199 
	C652.377563,712.210571 651.915161,717.035767 648.732422,721.475281 
	C645.814209,725.545715 641.551392,726.508240 636.831360,726.510986 
	C622.001221,726.519653 607.171082,726.608093 592.340942,726.664062 
	C590.851807,726.669678 589.362671,726.664795 587.166748,726.664795 
	C585.799622,736.993958 584.461853,747.101318 583.043396,757.818115 
	C592.756104,757.818115 601.888489,757.817810 611.020874,757.818237 
	C617.186523,757.818542 623.352905,757.762817 629.517700,757.835327 
	C636.889526,757.921997 641.940186,763.066650 642.058350,770.474792 
	C642.178894,778.037109 637.026978,783.912292 629.697632,783.983704 
	C614.701660,784.130005 599.701477,784.133362 584.706909,783.920532 
	C580.807312,783.865173 579.225220,784.762695 578.839661,788.992859 
	C577.857788,799.763672 576.240295,810.476196 574.906738,821.215820 
	C574.827820,821.851013 575.008484,822.518494 575.131897,823.863159 
	C582.609558,823.863159 590.054810,823.863159 598.000000,823.853149 
z"/>
<path fill="#FDFDFF" opacity="1.000000" stroke="none" 
	d="
M146.000092,850.001892 
	C138.530609,850.001892 131.561081,850.001892 123.838470,850.001892 
	C130.231918,799.855835 136.558777,750.232117 142.913910,700.386658 
	C144.234604,700.195862 145.334076,699.899658 146.433868,699.898499 
	C169.932632,699.872559 193.431686,699.816040 216.930084,699.911316 
	C226.462433,699.949951 232.328339,707.665833 230.014999,716.740173 
	C228.472839,722.789368 223.988327,726.213501 217.088348,726.290100 
	C202.091568,726.456604 187.093536,726.508484 172.095978,726.603760 
	C170.293945,726.615173 168.491760,726.605286 166.168060,726.605286 
	C164.803253,737.002319 163.492477,746.987732 162.079453,757.752136 
	C164.345169,757.752136 166.110031,757.752075 167.874878,757.752197 
	C181.207520,757.752991 194.540314,757.717896 207.872772,757.768311 
	C215.773407,757.798157 220.851044,762.720459 220.996140,770.319275 
	C221.148911,778.319885 215.823746,783.998047 207.794968,784.044678 
	C192.963089,784.130798 178.128235,784.178406 163.299133,783.949036 
	C159.427795,783.889099 158.237839,785.098083 157.846252,788.916382 
	C156.677094,800.317017 155.020233,811.667603 153.474289,823.654724 
	C155.806046,823.760498 157.561844,823.909241 159.317612,823.908813 
	C172.816742,823.905701 186.315872,823.867065 199.815002,823.852905 
	C208.800873,823.843445 214.125488,828.651672 214.177048,836.793030 
	C214.228333,844.894775 208.823669,849.975525 199.997299,849.991699 
	C182.164948,850.024475 164.332474,850.001709 146.000092,850.001892 
z"/>
<path fill="#FCFDFF" opacity="1.000000" stroke="none" 
	d="
M808.768311,826.869873 
	C805.411255,833.609131 802.292480,840.050293 798.968689,846.383850 
	C798.277832,847.700317 796.856628,849.536377 795.721985,849.572815 
	C787.297424,849.843018 778.860291,849.719299 769.632202,849.719299 
	C770.678955,847.356689 771.323425,845.721802 772.108154,844.157227 
	C795.382263,797.752747 818.713745,751.376953 841.871765,704.914551 
	C843.682068,701.282471 845.699951,699.691284 849.801819,700.037781 
	C855.084778,700.484131 862.068542,698.361877 865.277039,701.019470 
	C868.707886,703.861389 868.708252,710.950256 870.009277,716.233826 
	C872.037537,724.470337 873.833618,732.764160 875.867310,740.999268 
	C876.603821,743.981934 876.191711,746.086609 873.105103,747.420471 
	C871.136353,748.271240 869.320312,749.518494 867.526611,750.723206 
	C862.106750,754.363403 857.364990,756.479858 850.001465,753.452637 
	C839.125916,748.981628 827.011475,756.920044 823.348206,768.887085 
	C819.489014,781.494141 825.767212,795.061157 837.443420,799.346680 
	C848.470642,803.393860 861.520447,798.047791 864.846436,786.217346 
	C867.566467,776.542297 875.579346,775.161316 882.491028,770.045288 
	C888.731812,796.924194 894.765015,822.908875 900.986694,849.705566 
	C892.814514,849.705566 885.229858,849.830383 877.660400,849.548828 
	C876.706604,849.513367 875.339905,847.466431 875.001526,846.138245 
	C872.907715,837.918945 870.930664,829.664429 869.190308,821.363770 
	C868.629822,818.690674 867.491760,817.830139 864.853943,817.844116 
	C848.699463,817.930115 832.543274,817.811096 816.390747,818.010986 
	C814.856445,818.029968 812.988464,819.485291 811.910828,820.796143 
	C810.572510,822.424194 809.896057,824.596436 808.768311,826.869873 
z"/>
<path fill="#FCFDFF" opacity="1.000000" stroke="none" 
	d="
M243.714325,752.718262 
	C256.415894,740.541138 270.803101,734.352234 288.403503,736.867249 
	C299.156464,738.403809 307.513885,743.417847 313.223022,752.614563 
	C314.877808,755.280151 316.662567,756.499939 319.975739,756.482239 
	C331.482086,756.420593 334.848022,760.807312 333.488739,772.409302 
	C330.563660,797.375916 327.890198,822.372009 325.108551,847.355469 
	C325.035522,848.011353 324.902954,848.660522 324.723816,849.775635 
	C314.693451,850.727783 308.136932,844.511047 301.630768,838.222656 
	C299.391846,840.118958 297.528534,841.761536 295.598602,843.321716 
	C276.102081,859.082458 250.049286,855.248291 235.864655,834.543640 
	C219.122910,810.106567 222.319565,775.796997 243.714325,752.718262 
M295.141693,764.127869 
	C282.325653,758.475281 268.976624,761.455261 259.865997,772.044800 
	C251.960938,781.232910 249.870575,792.111816 250.819839,803.815308 
	C251.765747,815.477478 258.603333,824.577698 268.500336,827.506653 
	C279.338196,830.713928 292.269073,827.221252 298.602631,818.123108 
	C302.515198,812.502686 305.762726,805.990540 307.542450,799.401672 
	C311.495178,784.767822 306.688049,771.904663 295.141693,764.127869 
z"/>
<path fill="#FCFDFF" opacity="1.000000" stroke="none" 
	d="
M481.868530,800.648865 
	C492.255005,781.250305 502.566925,762.215576 512.634766,743.052612 
	C514.270508,739.939148 516.102539,738.790405 519.567932,738.916870 
	C526.716309,739.177551 533.880798,738.995361 541.971436,738.995361 
	C541.038757,740.910950 540.412903,742.310852 539.692200,743.659912 
	C514.270203,791.248047 488.803589,838.812561 463.486786,886.456604 
	C461.736633,889.750183 459.723297,890.904175 456.100861,890.760864 
	C449.302002,890.491882 442.484924,890.683411 434.726471,890.683411 
	C435.759460,888.449524 436.411743,886.861816 437.205963,885.348755 
	C445.331329,869.867859 453.600861,854.460205 461.491943,838.861084 
	C462.681213,836.510132 463.001556,833.025513 462.257477,830.496826 
	C453.848114,801.917175 445.150635,773.422363 436.538086,744.902466 
	C436.014954,743.170105 435.556885,741.418091 434.964569,739.304199 
	C443.234619,739.304199 451.143738,739.304199 459.656006,739.304199 
	C466.148499,760.535217 472.699707,781.958130 479.422516,803.942322 
	C480.389130,802.687866 481.050964,801.828979 481.868530,800.648865 
z"/>
<path fill="#FCFDFF" opacity="1.000000" stroke="none" 
	d="
M345.524780,833.229614 
	C345.494751,831.914124 345.387695,830.629883 345.968811,829.876587 
	C350.334564,824.217102 354.835938,818.662292 359.600006,812.692383 
	C361.912079,815.177673 363.920837,817.524902 366.126251,819.669861 
	C371.207611,824.611816 377.073395,827.752441 384.446960,827.240662 
	C388.612000,826.951660 392.553314,825.308289 393.247162,821.237366 
	C393.750031,818.286804 392.626648,814.142639 390.667236,811.886780 
	C387.003082,807.668274 382.169556,804.475769 377.889557,800.778748 
	C374.113434,797.516968 370.171295,794.393188 366.751282,790.783264 
	C356.024139,779.460571 353.857635,763.758728 361.072937,751.704529 
	C368.396973,739.468689 384.333954,733.375061 399.013062,737.329651 
	C407.512665,739.619507 414.355865,744.475525 419.531189,751.560852 
	C420.390656,752.737427 421.279572,754.920654 420.761810,755.908508 
	C417.392029,762.337585 413.637482,768.564880 409.917908,775.016113 
	C407.339233,772.028198 405.526367,769.029968 402.915588,767.125671 
	C399.512177,764.643188 395.651550,762.478638 391.659760,761.204285 
	C388.130798,760.077515 384.025757,761.543213 383.092285,765.288879 
	C382.475464,767.763977 383.649017,771.695740 385.468872,773.568176 
	C389.965973,778.195374 395.328552,781.974609 400.284088,786.164734 
	C408.378815,793.009155 415.895905,800.280212 417.971619,811.361267 
	C422.550690,835.806519 402.258362,856.013855 376.901093,852.628052 
	C363.533661,850.843140 354.220154,843.008301 345.524780,833.229614 
z"/>
<path fill="#FAFBFF" opacity="1.000000" stroke="none" 
	d="
M838.804443,782.239563 
	C838.198547,781.386597 837.749146,780.863098 837.499268,780.257324 
	C835.393921,775.153564 836.870361,769.831299 841.194763,767.674622 
	C845.082642,765.735657 848.679138,766.435852 851.542053,769.776611 
	C854.695312,773.456238 854.438477,779.079895 851.084473,782.548584 
	C847.813599,785.931274 843.733704,785.925293 838.804443,782.239563 
z"/>
<path fill="#5689FF" opacity="1.000000" stroke="none" 
	d="
M437.547119,517.566162 
	C450.922241,542.847656 432.992767,571.369202 403.275360,573.961609 
	C391.000031,575.032471 379.828186,571.849915 370.288544,563.865112 
	C351.305267,547.975830 351.788483,520.803589 371.248230,505.505341 
	C392.269104,488.979767 423.275146,494.488892 437.547119,517.566162 
z"/>
<path fill="#5689FF" opacity="1.000000" stroke="none" 
	d="
M688.166931,822.738525 
	C690.531372,802.165527 693.007996,782.021362 695.518066,761.881470 
	C696.976196,750.182190 698.488037,738.489624 699.961060,726.909546 
	C735.613892,723.032898 754.588074,743.433655 752.666443,776.604675 
	C752.122009,786.002930 750.032654,795.055420 744.905823,803.154602 
	C737.152771,815.402466 726.093323,822.264587 711.559631,822.965637 
	C703.818848,823.339050 696.049561,823.120483 688.166931,822.738525 
z"/>
<path fill="#5689FF" opacity="1.000000" stroke="none" 
	d="
M295.470886,764.311646 
	C306.688049,771.904663 311.495178,784.767822 307.542450,799.401672 
	C305.762726,805.990540 302.515198,812.502686 298.602631,818.123108 
	C292.269073,827.221252 279.338196,830.713928 268.500336,827.506653 
	C258.603333,824.577698 251.765747,815.477478 250.819839,803.815308 
	C249.870575,792.111816 251.960938,781.232910 259.865997,772.044800 
	C268.976624,761.455261 282.325653,758.475281 295.470886,764.311646 
z"/>
</svg>